<?xml version="1.0" ?><!DOCTYPE svg  PUBLIC '-//W3C//DTD SVG 1.1//EN'  'http://www.w3.org/Graphics/SVG/1.1/DTD/svg11.dtd'><svg height="6.82666in" style="shape-rendering:geometricPrecision; text-rendering:geometricPrecision; image-rendering:optimizeQuality; fill-rule:evenodd; clip-rule:evenodd" viewBox="0 0 6.82666 6.82666" width="6.82666in" xml:space="preserve" xmlns="http://www.w3.org/2000/svg" xmlns:xlink="http://www.w3.org/1999/xlink"><defs><style type="text/css">
   <![CDATA[
    .fil4 {fill:none}
    .fil2 {fill:#41479B}
    .fil0 {fill:#73AF00}
    .fil1 {fill:#FFE15A}
    .fil3 {fill:#F8F8F9}
   ]]>
  </style></defs><g id="Layer_x0020_1"><g id="_531987256"><path class="fil0" d="M5.88504 5.09057l-4.94344 0c-0.0487244,0 -0.0882717,-0.0395512 -0.0882717,-0.0882756l0 -3.17792c0,-0.0487244 0.0395472,-0.0882756 0.0882717,-0.0882756l4.94344 0c0.0487362,0 0.0882874,0.0395512 0.0882874,0.0882756l0 3.17792c0,0.0487756 -0.0395512,0.0882756 -0.0882874,0.0882756z" id="_498778376"/><path class="fil1" d="M3.36743 2.20543l-1.86059 1.13251c-0.0564882,0.034374 -0.0564882,0.116413 0,0.150787l1.86059 1.1325c0.0281732,0.017189 0.0635709,0.017189 0.0917953,3.93701e-006l1.86053 -1.13251c0.0565512,-0.034374 0.0565472,-0.116413 0,-0.150787l-1.86053 -1.13251c-0.0281772,-0.017185 -0.063626,-0.017185 -0.0917992,0z" id="_498778496"/><path class="fil2" d="M4.11953 3.41333c0,0.390043 -0.316161,0.706209 -0.706201,0.706209 -0.390035,0 -0.706193,-0.316161 -0.706193,-0.706209 0,-0.390039 0.316157,-0.706201 0.706193,-0.706201 0.390039,0 0.706201,0.316165 0.706201,0.706201z" id="_498778352"/><path class="fil3" d="M2.80732 3.05205c-0.0332992,0.055811 -0.0590236,0.116413 -0.0760236,0.18076 0.391461,-0.029437 0.97061,0.0800748 1.33921,0.437752 0.0240748,-0.0614291 0.0399331,-0.126811 0.0458976,-0.195228 -0.38061,-0.320307 -0.906783,-0.43422 -1.30908,-0.423283z" id="_498778304"/><path class="fil3" d="M3.44258 3.65435l0.0187953 0.0563504 0.0594134 0.000488189c0.00767717,5.11811e-005 0.0109016,0.00986614 0.00468898,0.0144488l-0.0477992 0.0353031 0.0179213 0.0566339c0.00233858,0.00732677 -0.00601181,0.013437 -0.0122638,0.00893701l-0.0483819 -0.0345591 -0.0483386 0.0345591c-0.00624803,0.0045 -0.0146024,-0.00161024 -0.0123031,-0.00893701l0.0179646 -0.0566339 -0.0477992 -0.0353031c-0.00620079,-0.00458661 -0.00302362,-0.0143976 0.00468504,-0.0144488l0.0594291 -0.000488189 0.0187953 -0.0563504c0.00244094,-0.00732283 0.0127402,-0.00732283 0.0151929,0z" id="_498778280"/><path class="fil3" d="M3.67358 3.8002l0.00806299 0.0242126 0.0255748 0.000248031c0.00332677,0 0.00469685,0.00425197 0.00201181,0.00620079l-0.020563 0.015189 0.00771654 0.0243622c0.000972441,0.00317717 -0.00259055,0.00581102 -0.00527953,0.00385039l-0.0208465 -0.0148386 -0.0208031 0.0148386c-0.00267323,0.00196063 -0.0062874,-0.000673228 -0.00525984,-0.00385039l0.0077126 -0.0243622 -0.0206102 -0.015189c-0.00264173,-0.00194882 -0.00126772,-0.00620079 0.00204724,-0.00620079l0.0255354 -0.000248031 0.00811417 -0.0242126c0.0010748,-0.00317717 0.00550787,-0.00317717 0.00658661,0z" id="_498777752"/><path class="fil3" d="M3.34272 3.54721l0.00806693 0.0242756 0.0255827 0.000185039c0.00331496,0 0.00468898,0.00425197 0.002,0.0062126l-0.020563 0.0152244 0.00772441 0.024378c0.000980315,0.00315748 -0.00258661,0.00574803 -0.00527559,0.00385039l-0.0208465 -0.0148898 -0.0207992 0.0148858c-0.00268504,0.00190157 -0.00629921,-0.000688976 -0.00527559,-0.00384646l0.0077126 -0.024378 -0.0206024 -0.0152244c-0.00263386,-0.00196063 -0.00127559,-0.00616142 0.00205118,-0.0062126l0.0255394 -0.000185039 0.00809843 -0.0242756c0.0010748,-0.00312598 0.00551181,-0.00312598 0.00658661,0z" id="_498777680"/><path class="fil3" d="M2.89463 3.51782l0.00809843 0.0242126 0.0255354 0.000251969c0.00332677,0 0.00468898,0.00424803 0.00205118,0.00620079l-0.0205984 0.015185 0.0077126 0.0244134c0.00102362,0.00312205 -0.00259055,0.00576378 -0.00527559,0.00381496l-0.0207992 -0.0148543 -0.0208504 0.0148504c-0.00268898,0.00195276 -0.00625197,-0.000685039 -0.00527559,-0.00381102l0.0077126 -0.0244134 -0.0205472 -0.015185c-0.00268898,-0.00195276 -0.00133071,-0.00620079 0.00199606,-0.00620079l0.0255866 -0.000251969 0.00805118 -0.0242126c0.00107874,-0.00317323 0.00552362,-0.00317323 0.00660236,0z" id="_498777920"/><path class="fil3" d="M3.26948 3.7918l0.00806299 0.0242598 0.0255748 0.000200787c0.00332677,0 0.00468898,0.00424803 0.00201181,0.00619685l-0.020563 0.0151929 0.00771654 0.0244094c0.000972441,0.00317323 -0.00259055,0.00576378 -0.00527559,0.00386614l-0.0208504 -0.0149055 -0.0208031 0.0149016c-0.00268504,0.00190157 -0.00629921,-0.000685039 -0.00527559,-0.0038622l0.00772835 -0.0244094 -0.0206102 -0.0151929c-0.00264173,-0.00194882 -0.00126772,-0.00619685 0.00204724,-0.00619685l0.0255866 -0.000200787 0.00806299 -0.0242598c0.0010748,-0.00312598 0.00551181,-0.00312598 0.00658661,0z" id="_498778112"/><path class="fil3" d="M3.06323 3.50087l0.00658661 0.0198228 0.0209488 0.000204724c0.00268898,0 0.00381102,0.00346063 0.00166142,0.00507087l-0.0168465 0.0124016 0.00629921 0.0199764c0.000834646,0.00258661 -0.00210236,0.00468504 -0.00430315,0.00312205l-0.0170354 -0.0121614 -0.0169843 0.0121614c-0.00225197,0.00156299 -0.00517717,-0.000535433 -0.00435433,-0.00312205l0.00630315 -0.0199764 -0.0168504 -0.0124016c-0.00214961,-0.00161024 -0.00102756,-0.00507087 0.00166142,-0.00507087l0.0209528 -0.000204724 0.00658661 -0.0198228c0.000885827,-0.00258661 0.0045,-0.00258661 0.00537402,0z" id="_498777848"/><path class="fil3" d="M3.6915 3.09126l0.00829921 0.0247992 0.026126 0.000204724c0.00340945,4.72441e-005 0.00482283,0.00438583 0.00209843,0.00639764l-0.0210512 0.0155276 0.00786614 0.0249488c0.00102362,0.00322441 -0.0026378,0.00591339 -0.00537795,0.00390157l-0.0212874 -0.0151772 -0.0212835 0.0151772c-0.0027874,0.00201181 -0.00645276,-0.000677165 -0.00542913,-0.00390157l0.00786614 -0.0249488 -0.0210394 -0.0155276c-0.00273622,-0.00201181 -0.00132677,-0.00635039 0.00210236,-0.00639764l0.0261102 -0.000204724 0.00831102 -0.0247992c0.00106299,-0.00322441 0.00561417,-0.00322441 0.00668898,0z" id="_498777872"/><path class="fil3" d="M2.92343 3.37949l0.00664961 0.0198228 0.0208898 0.000200787c0.00268504,0 0.0038622,0.00346457 0.00166142,0.0050748l-0.0168386 0.0123976 0.00633858 0.0199803c0.000787402,0.00258661 -0.00214173,0.00468504 -0.00433858,0.00312205l-0.0170394 -0.0121614 -0.017 0.0121614c-0.00220079,0.00156299 -0.00512205,-0.000535433 -0.00433465,-0.00312205l0.0062874 -0.0199803 -0.0167874 -0.0123976c-0.00220079,-0.00161024 -0.00107874,-0.0050748 0.00164567,-0.0050748l0.0209016 -0.000200787 0.00665354 -0.0198228c0.000822835,-0.00258661 0.00443701,-0.00258661 0.00531102,0z" id="_498777704"/><path class="fil3" d="M3.02446 3.65913l0.0100118 0.0300748 0.031689 0.000240157c0.00409843,0 0.00575984,0.00522441 0.0025,0.00767323l-0.0254882 0.0188386 0.00956299 0.0301772c0.00122441,0.00390945 -0.00322441,0.00718504 -0.00658661,0.00478346l-0.0257913 -0.0184488 -0.0257717 0.0184488c-0.00332283,0.00235039 -0.00776378,-0.000874016 -0.00655118,-0.00478346l0.0095748 -0.0301772 -0.0254843 -0.0188386c-0.00332677,-0.00244882 -0.00161811,-0.00767323 0.00248819,-0.00767323l0.031685 -0.000240157 0.0100118 -0.0300748c0.00132283,-0.0038622 0.00683858,-0.0038622 0.00814961,0z" id="_498777800"/><path class="fil3" d="M3.80234 3.8065l0.00629921 0.0188858 0.0199252 0.000149606c0.00258661,0 0.00364961,0.00332677 0.00159843,0.00483858l-0.016063 0.0118583 0.00601181 0.0190039c0.000775591,0.00243307 -0.002,0.00448425 -0.00409843,0.00297244l-0.0162126 -0.0115748 -0.0162126 0.0115748c-0.00210236,0.00151181 -0.00493701,-0.000535433 -0.00415354,-0.00297244l0.00600394 -0.0190039 -0.0160118 -0.0118622c-0.00205118,-0.00150787 -0.00102362,-0.00483465 0.00156299,-0.00483465l0.0199213 -0.000149606 0.00630315 -0.0188858c0.000822835,-0.00250394 0.00433465,-0.00250394 0.00512598,0z" id="_531986152"/><path class="fil3" d="M3.87207 3.66216l0.00809843 0.0242638 0.0255866 0.00019685c0.00332677,5.11811e-005 0.00468898,0.00425197 0.002,0.00625197l-0.0205472 0.015185 0.00770866 0.0243661c0.000980315,0.00317323 -0.00258661,0.00575984 -0.00532283,0.00384646l-0.0207992 -0.0148858 -0.0207992 0.0148858c-0.00268898,0.00191339 -0.00630315,-0.000673228 -0.00527953,-0.00384646l0.00772835 -0.0243661 -0.0206142 -0.015185c-0.00263386,-0.00194882 -0.00125984,-0.00620079 0.002,-0.00625197l0.0255906 -0.00019685 0.00811417 -0.0242638c0.00105906,-0.00312598 0.00550787,-0.00312598 0.00653543,0z" id="_531994648"/></g></g><rect class="fil4" height="6.82666" width="6.82666"/></svg>